<svg xmlns="http://www.w3.org/2000/svg" width="512" height="512" viewBox="0 0 680 680">
  <rect x="40" y="40" width="600" height="600" rx="90" fill="#111111"/>
  <rect x="130" y="280" width="420" height="190" rx="18" fill="#ffffff"/>
  <rect x="145" y="295" width="90" height="80" rx="8" fill="#111111"/>
  <rect x="255" y="295" width="70" height="60" rx="6" fill="#111111"/>
  <rect x="340" y="295" width="70" height="60" rx="6" fill="#111111"/>
  <rect x="425" y="295" width="70" height="60" rx="6" fill="#111111"/>
  <circle cx="220" cy="475" r="42" fill="#111111"/>
  <circle cx="220" cy="475" r="22" fill="#ffffff"/>
  <circle cx="220" cy="475" r="8" fill="#111111"/>
  <circle cx="460" cy="475" r="42" fill="#111111"/>
  <circle cx="460" cy="475" r="22" fill="#ffffff"/>
  <circle cx="460" cy="475" r="8" fill="#111111"/>
  <circle cx="470" cy="200" r="72" fill="#111111" stroke="#ffffff" stroke-width="3"/>
  <path d="M470,148 L482,182 L518,182 L490,204 L500,240 L470,218 L440,240 L450,204 L422,182 L458,182 Z" fill="#ffffff"/>
</svg>